<svg xmlns="http://www.w3.org/2000/svg" viewBox="0 0 495.3 495"><path fill="#FFFFFF"  d="M178.8 0a257 257 0 0 0-57.5 24 69.3 69.3 0 0 1-5.6 91.7A69.3 69.3 0 0 1 24 121 257 257 0 0 0 0 179a69.3 69.3 0 0 1 61 68.7A69.3 69.3 0 0 1 0 316.2a257 257 0 0 0 24 57.5 69.3 69.3 0 0 1 91.7 5.6A69.3 69.3 0 0 1 121 471 257 257 0 0 0 179 495a69.3 69.3 0 0 1 68.7-61 69.3 69.3 0 0 1 68.7 61.2 257 257 0 0 0 57.5-24.2 69.3 69.3 0 0 1 5.6-91.5 69.3 69.3 0 0 1 91.7-5.5 257 257 0 0 0 24-57.5 69.3 69.3 0 0 1-61-68.8 69.3 69.3 0 0 1 61.3-68.7A257 257 0 0 0 471 121a69.3 69.3 0 0 1-91.7-5.3 69.3 69.3 0 0 1-5.3-92A257 257 0 0 0 316.2.2a69.3 69.3 0 0 1-68.7 61 69.3 69.3 0 0 1-68.7-61zm69 129A118.6 118.6 0 0 1 366 247.4 118.6 118.6 0 0 1 247.7 366 118.6 118.6 0 0 1 129 247.6 118.6 118.6 0 0 1 247.8 129z"/></svg>
